<mxfile host="Electron" modified="2023-07-26T09:59:31.750Z" agent="Mozilla/5.0 (Windows NT 10.0; Win64; x64) AppleWebKit/537.36 (KHTML, like Gecko) draw.io/21.6.1 Chrome/112.0.5615.204 Electron/24.6.1 Safari/537.36" etag="6fnyDWuf8TUiwWHV9_J0" version="21.6.1" type="device">
  <diagram name="Page-1" id="y9_hLMuGLrMCVcfk6m2U">
    <mxGraphModel dx="1948" dy="749" grid="1" gridSize="10" guides="1" tooltips="1" connect="1" arrows="1" fold="1" page="1" pageScale="1" pageWidth="850" pageHeight="1100" math="0" shadow="0">
      <root>
        <mxCell id="0" />
        <mxCell id="1" parent="0" />
        <mxCell id="398nRuD2KLsTxzNBIxOB-1" value="Enemy Spawn System" style="rounded=0;whiteSpace=wrap;html=1;fontStyle=1;fontSize=29;" vertex="1" parent="1">
          <mxGeometry x="150" y="80" width="550" height="70" as="geometry" />
        </mxCell>
        <mxCell id="398nRuD2KLsTxzNBIxOB-2" value="Considerations" style="rounded=0;whiteSpace=wrap;html=1;" vertex="1" parent="1">
          <mxGeometry x="-60" y="170" width="120" height="60" as="geometry" />
        </mxCell>
        <mxCell id="398nRuD2KLsTxzNBIxOB-3" value="Enemies should get harder and not last forever" style="rounded=0;whiteSpace=wrap;html=1;" vertex="1" parent="1">
          <mxGeometry x="-60" y="250" width="210" height="60" as="geometry" />
        </mxCell>
        <mxCell id="398nRuD2KLsTxzNBIxOB-4" value="Map&amp;lt;EnemyType, EnemyConfig&amp;gt; {}" style="rounded=0;whiteSpace=wrap;html=1;" vertex="1" parent="1">
          <mxGeometry x="-60" y="310" width="210" height="60" as="geometry" />
        </mxCell>
        <mxCell id="398nRuD2KLsTxzNBIxOB-8" value="" style="edgeStyle=orthogonalEdgeStyle;rounded=0;orthogonalLoop=1;jettySize=auto;html=1;" edge="1" parent="1" source="398nRuD2KLsTxzNBIxOB-5" target="398nRuD2KLsTxzNBIxOB-7">
          <mxGeometry relative="1" as="geometry" />
        </mxCell>
        <mxCell id="398nRuD2KLsTxzNBIxOB-16" value="" style="edgeStyle=orthogonalEdgeStyle;rounded=0;orthogonalLoop=1;jettySize=auto;html=1;" edge="1" parent="1" source="398nRuD2KLsTxzNBIxOB-5" target="398nRuD2KLsTxzNBIxOB-7">
          <mxGeometry relative="1" as="geometry" />
        </mxCell>
        <mxCell id="398nRuD2KLsTxzNBIxOB-5" value="EnemyTwo : Config(&lt;br&gt;startSpawn = 2min,&lt;br&gt;spawnRate (every X sec) = 6,&lt;br&gt;clusterSize = 5,&lt;br&gt;endSpawn = 5min,&lt;br&gt;spawnLocation = (inside, outside, both),&lt;br&gt;actionOnSpawnEnd = (instant all die, periodically die, no force deaths),&lt;br&gt;onBossKill?,&lt;br&gt;isBoss = false)&lt;br&gt;" style="rounded=0;whiteSpace=wrap;html=1;align=left;spacing=6;" vertex="1" parent="1">
          <mxGeometry x="150" y="310" width="210" height="190" as="geometry" />
        </mxCell>
        <mxCell id="398nRuD2KLsTxzNBIxOB-7" value="If endSpawn == null, then it will only spawn once @ the start time" style="whiteSpace=wrap;html=1;align=left;rounded=0;spacing=6;" vertex="1" parent="1">
          <mxGeometry x="440" y="297.5" width="120" height="85" as="geometry" />
        </mxCell>
        <mxCell id="398nRuD2KLsTxzNBIxOB-11" value="" style="edgeStyle=orthogonalEdgeStyle;rounded=0;orthogonalLoop=1;jettySize=auto;html=1;" edge="1" parent="1" source="398nRuD2KLsTxzNBIxOB-9" target="398nRuD2KLsTxzNBIxOB-10">
          <mxGeometry relative="1" as="geometry" />
        </mxCell>
        <mxCell id="398nRuD2KLsTxzNBIxOB-9" value="Initiation" style="rounded=0;whiteSpace=wrap;html=1;" vertex="1" parent="1">
          <mxGeometry x="-60" y="510" width="120" height="60" as="geometry" />
        </mxCell>
        <mxCell id="398nRuD2KLsTxzNBIxOB-13" value="" style="edgeStyle=orthogonalEdgeStyle;rounded=0;orthogonalLoop=1;jettySize=auto;html=1;" edge="1" parent="1" source="398nRuD2KLsTxzNBIxOB-10" target="398nRuD2KLsTxzNBIxOB-12">
          <mxGeometry relative="1" as="geometry" />
        </mxCell>
        <mxCell id="398nRuD2KLsTxzNBIxOB-15" value="" style="edgeStyle=orthogonalEdgeStyle;rounded=0;orthogonalLoop=1;jettySize=auto;html=1;" edge="1" parent="1" source="398nRuD2KLsTxzNBIxOB-10" target="398nRuD2KLsTxzNBIxOB-14">
          <mxGeometry relative="1" as="geometry" />
        </mxCell>
        <mxCell id="398nRuD2KLsTxzNBIxOB-10" value="Create a timer that will then call the spawn sequence for a certain enemy, and also create a new timer for the next enemies" style="whiteSpace=wrap;html=1;rounded=0;spacing=6;" vertex="1" parent="1">
          <mxGeometry x="150" y="510" width="210" height="90" as="geometry" />
        </mxCell>
        <mxCell id="398nRuD2KLsTxzNBIxOB-12" value="start enemies -&amp;gt; 2 minute enemies -&amp;gt; 3 minute enemies.... -&amp;gt; n Minute enemies" style="whiteSpace=wrap;html=1;rounded=0;spacing=6;" vertex="1" parent="1">
          <mxGeometry x="390" y="510" width="350" height="60" as="geometry" />
        </mxCell>
        <mxCell id="398nRuD2KLsTxzNBIxOB-14" value="little bit more complex, but reduces the need for upwards of 100 seperate timers" style="whiteSpace=wrap;html=1;rounded=0;spacing=6;" vertex="1" parent="1">
          <mxGeometry x="420" y="580" width="210" height="60" as="geometry" />
        </mxCell>
        <mxCell id="398nRuD2KLsTxzNBIxOB-17" value="Boss spawn will create certain characteristics, such as pausing the game timer and other enemy spawns" style="whiteSpace=wrap;html=1;align=left;rounded=0;spacing=6;" vertex="1" parent="1">
          <mxGeometry x="440" y="382.5" width="190" height="85" as="geometry" />
        </mxCell>
        <mxCell id="398nRuD2KLsTxzNBIxOB-18" value="Complex Enemy System" style="rounded=0;whiteSpace=wrap;html=1;fontStyle=1;fontSize=29;" vertex="1" parent="1">
          <mxGeometry x="150" y="690" width="550" height="70" as="geometry" />
        </mxCell>
        <mxCell id="398nRuD2KLsTxzNBIxOB-19" value="Similar to above" style="rounded=0;whiteSpace=wrap;html=1;" vertex="1" parent="1">
          <mxGeometry x="-10" y="780" width="120" height="60" as="geometry" />
        </mxCell>
        <mxCell id="398nRuD2KLsTxzNBIxOB-20" value="Have a current state that is influenced by external factors such as &quot;onHit&quot; &quot;onAttack&quot; &quot;durationAlive&quot;" style="rounded=0;whiteSpace=wrap;html=1;" vertex="1" parent="1">
          <mxGeometry x="-10" y="860" width="300" height="60" as="geometry" />
        </mxCell>
        <mxCell id="398nRuD2KLsTxzNBIxOB-21" value="Change Melee Functionality so we can decide what attack to use rather than go through them all one by one as we currently do" style="rounded=0;whiteSpace=wrap;html=1;" vertex="1" parent="1">
          <mxGeometry x="-10" y="940" width="460" height="60" as="geometry" />
        </mxCell>
        <mxCell id="398nRuD2KLsTxzNBIxOB-22" value="Create CustomAttackFunctionality, similar to MeleeFunctionality and ProjectileFunctionality, but does custom coded attacks that are stored in a List&amp;lt;Function&amp;gt; attacks = [];&amp;nbsp;" style="rounded=0;whiteSpace=wrap;html=1;" vertex="1" parent="1">
          <mxGeometry x="-10" y="1020" width="460" height="70" as="geometry" />
        </mxCell>
      </root>
    </mxGraphModel>
  </diagram>
</mxfile>
